<?xml version="1.0" encoding="utf-8"?>
<!-- Generator: Adobe Illustrator 25.0.0, SVG Export Plug-In . SVG Version: 6.00 Build 0)  -->
<svg version="1.1" id="Layer_1" xmlns="http://www.w3.org/2000/svg" xmlns:xlink="http://www.w3.org/1999/xlink" x="0px" y="0px"
	 viewBox="0 0 1190 512" style="enable-background:new 0 0 1190 512;" xml:space="preserve">
<style type="text/css">
	.st0{fill:url(#SVGID_1_);}
	.st1{fill:url(#SVGID_2_);}
	.st2{fill:none;stroke:#FF6600;stroke-width:4;}
	.st3{fill:none;stroke:#FFFFFF;stroke-width:2;stroke-linecap:round;}
	.st4{fill:#FF6600;}
	.st5{fill:#FFFFFF;}
</style>
<g>
	<g>
		
			<linearGradient id="SVGID_1_" gradientUnits="userSpaceOnUse" x1="-40.7939" y1="676.522" x2="-39.954" y2="675.6822" gradientTransform="matrix(448 0 0 -512 18359 346402.5938)">
			<stop  offset="0" style="stop-color:#003399"/>
			<stop  offset="1" style="stop-color:#002266"/>
		</linearGradient>
		<path class="st0" d="M256,41c112.5,0,188.1,26.9,188.1,26.9l-26.9,335.9c0,0-48.7,67.2-161.2,67.2S94.8,403.8,94.8,403.8
			L67.9,67.9C67.9,67.9,143.5,41,256,41z"/>
		
			<radialGradient id="SVGID_2_" cx="-40.3292" cy="675.7023" r="0.4199" gradientTransform="matrix(240 0 0 -240 9935 162424.5625)" gradientUnits="userSpaceOnUse">
			<stop  offset="0" style="stop-color:#FF6600;stop-opacity:0.5"/>
			<stop  offset="1" style="stop-color:#FF6600;stop-opacity:0"/>
		</radialGradient>
		<circle class="st1" cx="256" cy="256" r="100.8">
		
			<animate  accumulate="none" additive="replace" attributeName="opacity" calcMode="linear" dur="2s" fill="remove" repeatCount="indefinite" restart="always" values="0.3;0.7;0.3">
			</animate>
		</circle>
		<line class="st2" x1="155.2" y1="256" x2="356.8" y2="256">
		
			<animate  accumulate="none" additive="replace" attributeName="y1" calcMode="linear" dur="3s" fill="remove" repeatCount="indefinite" restart="always" values="136;376;136">
			</animate>
		
			<animate  accumulate="none" additive="replace" attributeName="y2" calcMode="linear" dur="3s" fill="remove" repeatCount="indefinite" restart="always" values="136;376;136">
			</animate>
		
			<animate  accumulate="none" additive="replace" attributeName="opacity" calcMode="linear" dur="3s" fill="remove" repeatCount="indefinite" restart="always" values="0;1;0">
			</animate>
		</line>
		<g>
			<path class="st3" d="M256,256c0,0,20.2,0,20.2-16.8s-16.8-33.6-37-33.6s-37,16.8-37,33.6s16.8,33.6,37,33.6			">
<animate  accumulate="none" additive="replace" attributeName="stroke-dasharray" begin="0s" calcMode="linear" dur="3s" fill="remove" repeatCount="indefinite" restart="always" values="0,1000;1000,0">
					</animate>
			</path>
			<path class="st3" d="M256,256c0,0,37,0,37-33.6S259.4,172,239.2,172s-53.8,16.8-53.8,50.4s33.6,67.2,53.8,67.2			">
<animate  accumulate="none" additive="replace" attributeName="stroke-dasharray" begin="0.2s" calcMode="linear" dur="3s" fill="remove" repeatCount="indefinite" restart="always" values="0,1000;1000,0">
					</animate>
			</path>
			<path class="st3" d="M256,256c0,0,53.8,0,53.8-50.4s-50.4-67.2-70.5-67.2s-70.5,16.8-70.5,67.2s50.4,100.8,70.5,100.8			">
<animate  accumulate="none" additive="replace" attributeName="stroke-dasharray" begin="0.4s" calcMode="linear" dur="3s" fill="remove" repeatCount="indefinite" restart="always" values="0,1000;1000,0">
					</animate>
			</path>
			<path class="st3" d="M222.4,188.8c0,0,16.8,8.4,33.6,0s16.8-25.2,0-33.6			">
<animate  accumulate="none" additive="replace" attributeName="stroke-dasharray" begin="0.6s" calcMode="linear" dur="3s" fill="remove" repeatCount="indefinite" restart="always" values="0,1000;1000,0">
					</animate>
			</path>
			<path class="st3" d="M222.4,323.2c0,0,16.8,8.4,33.6,0s16.8-25.2,0-33.6			">
<animate  accumulate="none" additive="replace" attributeName="stroke-dasharray" begin="0.8s" calcMode="linear" dur="3s" fill="remove" repeatCount="indefinite" restart="always" values="0,1000;1000,0">
					</animate>
			</path>
		</g>
		<g>
			<circle class="st4" cx="256" cy="155.2" r="3.4">
			
				<animate  accumulate="none" additive="replace" attributeName="opacity" calcMode="linear" dur="2s" fill="remove" repeatCount="indefinite" restart="always" values="0;1;0">
				</animate>
			</circle>
			<circle class="st4" cx="256" cy="356.8" r="3.4">
			
				<animate  accumulate="none" additive="replace" attributeName="opacity" begin="1s" calcMode="linear" dur="2s" fill="remove" repeatCount="indefinite" restart="always" values="0;1;0">
				</animate>
			</circle>
		</g>
	</g>
	<g>
		<path class="st5" d="M712.4,385H572.1c-19.9,0-35.7-5.7-47.2-17.2c-11.6-11.5-17.4-27.1-17.4-46.9V127H531v193.9
			c0,27.5,13.8,41.2,41.4,41.2h117.1V127h22.8V385z M678.9,351.9H572.4c-20.6,0-30.9-10.3-30.9-30.9V127h22.8v193.9
			c0,2.9,0.2,5.1,0.7,6.7c1.4,0.5,3.8,0.7,7,0.7h83.7V127h23.2V351.9z"/>
		<path class="st5" d="M957.5,385h-22.8V191.6c0-27.6-13.7-41.4-41.2-41.4H776.2v123.1h-56.3v-23.2h32.7V127h140.5
			c19.8,0,35.5,5.8,47,17.4c11.6,11.6,17.4,27.3,17.4,47.2V385z M776.2,385h-23.6v-78.1h-32.7v-22.8h56.3V385z M924.4,273.3H786.6
			V161h106.9c20.6,0,30.9,10.2,30.9,30.6V273.3z M924.4,385h-23.6v-78.1h-91.4V385h-22.8V284.1h137.8V385z M900.9,250.1v-59.2
			c0-2.8-0.3-4.9-0.9-6.3c-1.4-0.5-3.5-0.7-6.1-0.7h-84.4v66.2H900.9z"/>
		<path class="st5" d="M1157.7,127l-8.1,23.2h-103.4c-27.6,0-41.4,13.8-41.4,41.4v129.4c0,27.5,13.8,41.2,41.4,41.2h100.2l-7.7,22.8
			h-92.8c-19.9,0-35.7-5.7-47.2-17.2c-11.6-11.5-17.4-27.1-17.4-46.9V191.6c0-19.9,5.8-35.7,17.4-47.2
			c11.6-11.6,27.3-17.4,47.2-17.4H1157.7z M1157.7,328.3l-8.1,23.6h-103.4c-20.6,0-30.9-10.3-30.9-30.9V191.6
			c0-20.4,10.3-30.6,30.9-30.6h100.2l-7.7,22.8h-92.8c-3.2,0-5.6,0.2-7,0.7c-0.5,1.4-0.7,3.8-0.7,7v129.4c0,2.9,0.2,5.1,0.7,6.7
			c1.4,0.5,3.8,0.7,7,0.7H1157.7z"/>
	</g>
</g>
</svg>
